<?xml version="1.0" encoding="utf-8"?>
<!-- Generator: Adobe Illustrator 24.1.2, SVG Export Plug-In . SVG Version: 6.00 Build 0)  -->
<svg version="1.1" id="Слой_1" xmlns="http://www.w3.org/2000/svg" xmlns:xlink="http://www.w3.org/1999/xlink" x="0px" y="0px"
	 viewBox="0 0 59.17 61.21" style="enable-background:new 0 0 59.17 61.21;" xml:space="preserve">
<style type="text/css">
	.st0{fill:none;stroke:#0f7ba9;stroke-miterlimit:10;}
	.st1{fill:#FFFFFF;}
</style>
<g>
	<path class="st0" d="M51.09,43.21c0.66-1.94,1.09-3.97,1.26-6.06l-4.18-2.02c0-0.68-0.02-1.36-0.08-2.05
		c-0.02-0.24-0.05-0.47-0.08-0.71l3.93-2.49c-0.41-2.06-1.06-4.04-1.92-5.88l-4.65,0.34c-0.45-0.8-0.96-1.58-1.51-2.31l2.16-4.11
		c-1.37-1.55-2.92-2.94-4.61-4.13l-3.85,2.61c-0.79-0.47-1.61-0.88-2.46-1.25l-0.18-4.64c-1.94-0.66-3.97-1.09-6.06-1.27l-2.03,4.18
		c-0.68-0.01-1.36,0.02-2.05,0.08c-0.24,0.02-0.47,0.05-0.71,0.08L21.6,9.65c-2.07,0.41-4.04,1.06-5.88,1.93l0.34,4.65
		c-0.8,0.45-1.58,0.96-2.31,1.51l-4.12-2.16c-1.56,1.37-2.94,2.92-4.13,4.62l2.61,3.85c-0.47,0.79-0.89,1.61-1.25,2.46l-4.64,0.18
		c-0.66,1.94-1.08,3.97-1.26,6.06l4.18,2.02c0,0.68,0.02,1.36,0.08,2.05c0.02,0.24,0.05,0.47,0.08,0.71L1.37,40
		c0.41,2.06,1.06,4.04,1.93,5.88l4.64-0.34c0.46,0.8,0.96,1.57,1.51,2.31l-2.16,4.11c1.37,1.56,2.92,2.94,4.61,4.13l3.85-2.61
		c0.79,0.47,1.61,0.89,2.46,1.25l0.18,4.64c1.94,0.66,3.96,1.09,6.06,1.26l2.03-4.18c0.67,0,1.36-0.02,2.05-0.08
		c0.24-0.02,0.47-0.05,0.7-0.08l2.48,3.94c2.07-0.41,4.04-1.06,5.89-1.92l-0.34-4.65c0.8-0.46,1.57-0.96,2.31-1.51l4.11,2.16
		c1.55-1.37,2.94-2.92,4.12-4.61l-2.61-3.85c0.46-0.79,0.88-1.61,1.25-2.46L51.09,43.21z M26.66,50.1c-8.36,0-15.16-6.8-15.16-15.16
		c0-8.36,6.8-15.16,15.16-15.16c8.36,0,15.16,6.8,15.16,15.16C41.82,43.3,35.02,50.1,26.66,50.1z"/>
	<polygon class="st1" points="58.52,28.53 45.06,26.43 35.23,19.78 30.38,1.53 58.52,0.96 	"/>
	<path class="st0" d="M57.25,14.63c0.26-0.76,0.43-1.57,0.5-2.39l-1.65-0.8c0-0.27-0.01-0.54-0.03-0.81
		c-0.01-0.09-0.02-0.19-0.03-0.28l1.55-0.98c-0.16-0.82-0.42-1.59-0.76-2.32L55,7.18c-0.18-0.32-0.38-0.62-0.6-0.91l0.85-1.62
		c-0.54-0.61-1.15-1.16-1.82-1.63l-1.52,1.03c-0.31-0.18-0.64-0.35-0.97-0.49l-0.07-1.83c-0.76-0.26-1.57-0.43-2.39-0.5l-0.8,1.65
		c-0.27,0-0.54,0.01-0.81,0.03c-0.09,0.01-0.19,0.02-0.28,0.03l-0.98-1.55c-0.82,0.16-1.59,0.42-2.32,0.76l0.13,1.83
		c-0.32,0.18-0.62,0.38-0.91,0.6l-1.62-0.85c-0.61,0.54-1.16,1.15-1.63,1.82l1.03,1.52c-0.18,0.31-0.35,0.64-0.49,0.97l-1.83,0.07
		c-0.26,0.76-0.43,1.57-0.5,2.39l1.65,0.8c0,0.27,0.01,0.54,0.03,0.81c0.01,0.09,0.02,0.19,0.03,0.28l-1.55,0.98
		c0.16,0.82,0.42,1.59,0.76,2.32l1.83-0.13c0.18,0.32,0.38,0.62,0.6,0.91l-0.85,1.62c0.54,0.62,1.15,1.16,1.82,1.63l1.52-1.03
		c0.31,0.19,0.64,0.35,0.97,0.49l0.07,1.83c0.76,0.26,1.56,0.43,2.39,0.5l0.8-1.65c0.27,0,0.54-0.01,0.81-0.03
		c0.09-0.01,0.19-0.02,0.28-0.03l0.98,1.56c0.82-0.16,1.59-0.42,2.32-0.76l-0.13-1.83c0.32-0.18,0.62-0.38,0.91-0.6l1.62,0.85
		c0.61-0.54,1.16-1.15,1.63-1.82l-1.03-1.52c0.18-0.31,0.35-0.64,0.49-0.97L57.25,14.63z M47.61,17.36c-3.3,0-5.99-2.69-5.99-5.99
		c0-3.3,2.68-5.99,5.99-5.99c3.3,0,5.99,2.69,5.99,5.99C53.59,14.67,50.91,17.36,47.61,17.36z"/>
</g>
</svg>
