<?xml version="1.0" encoding="utf-8"?>
<!-- Generator: Adobe Illustrator 24.1.2, SVG Export Plug-In . SVG Version: 6.00 Build 0)  -->
<svg version="1.1" id="Слой_1" xmlns="http://www.w3.org/2000/svg" xmlns:xlink="http://www.w3.org/1999/xlink" x="0px" y="0px"
	 viewBox="0 0 46.26 62" style="enable-background:new 0 0 46.26 62;" xml:space="preserve">
<style type="text/css">
	.st0{fill:#FFFFFF;stroke:#000000;stroke-miterlimit:10;}
</style>
<g>
	<g>
		<polygon class="st0" points="16.81,60.66 12.65,53.74 5.4,57.3 12.12,34.47 23.54,37.84 		"/>
		<polygon class="st0" points="30.71,60.66 34.88,53.74 42.13,57.3 35.4,34.47 23.99,37.84 		"/>
	</g>
	<g>
		<path class="st0" d="M26.03,2.73L26.03,2.73c0.55,2.19,3.29,2.92,4.85,1.3l0,0c2.08-2.15,5.65-0.09,4.83,2.79l0,0
			c-0.62,2.17,1.38,4.17,3.55,3.55l0,0c2.88-0.82,4.94,2.75,2.79,4.83l0,0c-1.62,1.57-0.89,4.31,1.3,4.85l0,0
			c2.9,0.73,2.9,4.85,0,5.58l0,0c-2.19,0.55-2.92,3.29-1.3,4.85l0,0c2.15,2.08,0.09,5.65-2.79,4.83l0,0
			c-2.17-0.62-4.17,1.38-3.55,3.55l0,0c0.82,2.88-2.75,4.94-4.83,2.79l0,0c-1.57-1.62-4.31-0.89-4.85,1.3l0,0
			c-0.73,2.9-4.85,2.9-5.58,0l0,0c-0.55-2.19-3.29-2.92-4.85-1.3l0,0c-2.08,2.15-5.65,0.09-4.83-2.79l0,0
			c0.62-2.17-1.38-4.17-3.55-3.55l0,0c-2.88,0.82-4.94-2.75-2.79-4.83l0,0c1.62-1.57,0.89-4.31-1.3-4.85l0,0
			c-2.9-0.73-2.9-4.85,0-5.58l0,0c2.19-0.55,2.92-3.29,1.3-4.85l0,0c-2.15-2.08-0.09-5.65,2.79-4.83l0,0
			c2.17,0.62,4.17-1.38,3.55-3.55l0,0c-0.82-2.88,2.75-4.94,4.83-2.79l0,0c1.57,1.62,4.31,0.89,4.85-1.3l0,0
			C21.18-0.18,25.31-0.18,26.03,2.73z"/>
		<circle class="st0" cx="23.24" cy="22.83" r="13.51"/>
	</g>
</g>
</svg>
