<?xml version="1.0" encoding="utf-8"?>
<!-- Generator: Adobe Illustrator 24.1.2, SVG Export Plug-In . SVG Version: 6.00 Build 0)  -->
<svg version="1.1" id="Слой_1" xmlns="http://www.w3.org/2000/svg" xmlns:xlink="http://www.w3.org/1999/xlink" x="0px" y="0px"
	 viewBox="0 0 59.2 61.2" style="enable-background:new 0 0 59.2 61.2;" xml:space="preserve">
<style type="text/css">
	.st0{fill:none;stroke:#0F7BA9;stroke-miterlimit:10;}
</style>
<g>
	<path class="st0" d="M37.6,16.4 M34.9,10.5c-1.9-0.7-4-1.1-6.1-1.3l-2,4.2c-0.7,0-1.4,0-2,0.1c-0.2,0-0.5,0.1-0.7,0.1l-2.5-3.9
		c-2.1,0.4-4,1.1-5.9,1.9l0.3,4.6c-0.8,0.5-1.6,1-2.3,1.5l-4.1-2.2c-1.6,1.4-2.9,2.9-4.1,4.6L8.1,24c-0.5,0.8-0.9,1.6-1.3,2.5
		l-4.6,0.2c-0.7,1.9-1.1,4-1.3,6.1l4.2,2c0,0.7,0,1.4,0.1,2c0,0.2,0.1,0.5,0.1,0.7L1.4,40c0.4,2.1,1.1,4,1.9,5.9l4.6-0.3
		c0.5,0.8,1,1.6,1.5,2.3L7.3,52c1.4,1.6,2.9,2.9,4.6,4.1l3.9-2.6c0.8,0.5,1.6,0.9,2.5,1.3l0.2,4.6c1.9,0.7,4,1.1,6.1,1.3l2-4.2
		c0.7,0,1.4,0,2-0.1c0.2,0,0.5,0,0.7-0.1l2.5,3.9c2.1-0.4,4-1.1,5.9-1.9l-0.3-4.7c0.8-0.5,1.6-1,2.3-1.5l4.1,2.2
		c1.5-1.4,2.9-2.9,4.1-4.6l-2.6-3.8c0.5-0.8,0.9-1.6,1.3-2.5l4.7-0.2c0.7-1.9,1.1-4,1.3-6.1l-4.2-2c0-0.7,0-1.4-0.1-2
		c0-0.2,0-0.5-0.1-0.7l3.9-2.5c-0.4-2.1-1.1-4-1.9-5.9 M26.7,50.1c-8.4,0-15.2-6.8-15.2-15.2s6.8-15.2,15.2-15.2s15.2,6.8,15.2,15.2
		S35,50.1,26.7,50.1z"/>
	<path class="st0" d="M57.3,14.6c0.3-0.8,0.4-1.6,0.5-2.4l-1.7-0.8c0-0.3,0-0.5,0-0.8c0-0.1,0-0.2,0-0.3l1.5-1
		c-0.2-0.8-0.4-1.6-0.8-2.3L55,7.2c-0.2-0.3-0.4-0.6-0.6-0.9l0.8-1.6C54.7,4,54.1,3.5,53.4,3l-1.5,1c-0.3-0.2-0.6-0.3-1-0.5
		l-0.1-1.8c-0.8-0.3-1.6-0.4-2.4-0.5l-0.8,1.6c-0.3,0-0.5,0-0.8,0c-0.1,0-0.2,0-0.3,0l-1-1.5c-0.8,0.2-1.6,0.4-2.3,0.8L43.4,4
		c-0.3,0.2-0.6,0.4-0.9,0.6l-1.6-0.8c-0.6,0.5-1.2,1.2-1.6,1.8l1,1.5c-0.2,0.3-0.3,0.6-0.5,1L38,8.1c-0.3,0.8-0.4,1.6-0.5,2.4
		l1.7,0.8c0,0.3,0,0.5,0,0.8c0,0.1,0,0.2,0,0.3l-1.5,1c0.2,0.8,0.4,1.6,0.8,2.3l1.8-0.1c0.2,0.3,0.4,0.6,0.6,0.9L40,18.1
		c0.5,0.6,1.2,1.2,1.8,1.6l1.5-1c0.3,0.2,0.6,0.4,1,0.5l0.1,1.8c0.8,0.3,1.6,0.4,2.4,0.5l0.8-1.6c0.3,0,0.5,0,0.8,0
		c0.1,0,0.2,0,0.3,0l1,1.6c0.8-0.2,1.6-0.4,2.3-0.8l-0.1-1.8c0.3-0.2,0.6-0.4,0.9-0.6l1.6,0.9c0.6-0.5,1.2-1.1,1.6-1.8l-1-1.5
		c0.2-0.3,0.3-0.6,0.5-1L57.3,14.6z M47.6,17.4c-3.3,0-6-2.7-6-6s2.7-6,6-6c3.3,0,6,2.7,6,6C53.6,14.7,50.9,17.4,47.6,17.4z"/>
</g>
</svg>
