<?xml version="1.0" encoding="utf-8"?>
<!-- Generator: Adobe Illustrator 24.1.2, SVG Export Plug-In . SVG Version: 6.00 Build 0)  -->
<svg version="1.1" id="Слой_1" xmlns="http://www.w3.org/2000/svg" xmlns:xlink="http://www.w3.org/1999/xlink" x="0px" y="0px"
	 viewBox="0 0 43.5 57.9" style="enable-background:new 0 0 43.5 57.9;" xml:space="preserve">
<style type="text/css">
	.st0{fill:none;stroke:#0f7ba9;stroke-miterlimit:10;}
	.st1{fill:#FFFFFF;stroke:#0f7ba9;stroke-miterlimit:10;}
	.st2{fill:#FFFFFF;stroke:#0f7ba9;stroke-miterlimit:10;}
	.st3{fill:#FFFFFF;stroke:#0f7ba9;stroke-width:0.7;stroke-miterlimit:10;}
	.st4{fill:#0f7ba9;}
	.st5{fill:none;stroke:#0f7ba9;stroke-width:1.5;stroke-miterlimit:10;}
</style>
<g>
	<g>
		<path class="st0" d="M37.2,57.6c0-0.5,0-1-0.1-1.5c0-0.2,0-0.3,0-0.5l2.8-1.8c-0.3-1.5-0.8-2.9-1.4-4.2l-3.3,0.2
			c-0.3-0.6-0.7-1.1-1.1-1.7l1.5-3c-1-1.1-2.1-2.1-3.3-3l-2.8,1.9c-0.6-0.3-1.1-0.6-1.8-0.9l-0.1-3.3c-1.4-0.5-2.8-0.8-4.3-0.9
			l-1.5,3c-0.5,0-1,0-1.5,0.1c-0.2,0-0.3,0-0.5,0.1l-1.8-2.8c-1.5,0.3-2.9,0.8-4.2,1.4l0.2,3.3c-0.6,0.3-1.1,0.7-1.6,1.1l-2.9-1.5
			c-1.1,1-2.1,2.1-3,3.3l1.9,2.8c-0.3,0.6-0.6,1.2-0.9,1.8l-3.3,0.1c-0.5,1.4-0.8,2.8-0.9,4.3L6.5,57 M10.9,57.5
			c0-6,4.9-10.9,10.9-10.9s10.9,4.9,10.9,10.9"/>
		<rect x="0.9" y="5.4" class="st0" width="41.5" height="51.7"/>
		<g>
			<line class="st0" x1="5" y1="12.2" x2="38.2" y2="12.2"/>
			<line class="st0" x1="5" y1="15.6" x2="38.2" y2="15.6"/>
			<line class="st0" x1="5" y1="19" x2="38.2" y2="19"/>
			<line class="st0" x1="5" y1="22.4" x2="38.2" y2="22.4"/>
			<line class="st0" x1="5" y1="25.8" x2="38.2" y2="25.8"/>
			<line class="st0" x1="5" y1="29.2" x2="38.2" y2="29.2"/>
			<line class="st0" x1="5" y1="32.6" x2="38.2" y2="32.6"/>
		</g>
	</g>
	<path class="st1" d="M30.3,7.1H12.9V3.2h4.6c0.8-1.8,2.2-2.6,4.1-2.5c2.2,0.1,3,1.3,3.9,2.5h4.8C30.3,3.2,30.3,7.1,30.3,7.1z"/>
</g>
<g>
	<rect x="19.5" y="11.3" transform="matrix(0.8515 0.5244 -0.5244 0.8515 14.5396 -7.6728)" class="st2" width="2.7" height="21"/>
	
		<rect x="25.4" y="11.9" transform="matrix(0.8515 0.5244 -0.5244 0.8515 10.3469 -12.2392)" class="st2" width="2.7" height="0.6"/>
	<polyline class="st2" points="14.1,30.1 14,32.9 16.5,31.5 	"/>
	<path class="st3" d="M28.6,11.5l-2.1-1.3c-0.1-0.1-0.3,0-0.4,0.1l-0.4,0.7c-0.1,0.1,0,0.3,0.1,0.4l2.1,1.3c0.1,0.1,0.3,0,0.4-0.1
		l0.4-0.7C28.8,11.7,28.7,11.6,28.6,11.5z"/>
	<polygon class="st4" points="15.1,32.2 13.9,33.1 14.1,31.6 	"/>
	<line class="st5" x1="25.4" y1="12.5" x2="14.5" y2="30.1"/>
</g>
</svg>
