<?xml version="1.0" encoding="utf-8"?>
<!-- Generator: Adobe Illustrator 24.1.2, SVG Export Plug-In . SVG Version: 6.00 Build 0)  -->
<svg version="1.1" id="Слой_1" xmlns="http://www.w3.org/2000/svg" xmlns:xlink="http://www.w3.org/1999/xlink" x="0px" y="0px"
	 viewBox="0 0 53.55 56.43" style="enable-background:new 0 0 53.55 56.43;" xml:space="preserve">
<style type="text/css">
	.st0{fill:none;stroke:#0f7ba9;stroke-miterlimit:10;}
</style>
<g>
	<g>
		<polyline class="st0" points="3.05,4.82 2.71,17.84 14.12,28.57 13.95,42.81 19.39,46.51 		"/>
		<circle class="st0" cx="3.01" cy="2.8" r="2.19"/>
		<circle class="st0" cx="9.05" cy="12.38" r="2.19"/>
		<circle class="st0" cx="16.71" cy="6.63" r="2.19"/>
		<polyline class="st0" points="9.1,14.85 9.05,17.31 20.84,28.25 21.1,41.78 		"/>
		<path class="st0" d="M12.06,19.47c0.06-0.1,4.72-4.37,4.72-4.37V8.62"/>
	</g>
	<polyline class="st0" points="50.39,4.82 50.73,17.84 39.33,28.57 39.5,42.81 34.05,46.51 	"/>
	<circle class="st0" cx="50.44" cy="2.8" r="2.19"/>
	<circle class="st0" cx="44.39" cy="12.38" r="2.19"/>
	<circle class="st0" cx="36.73" cy="6.63" r="2.19"/>
	<circle class="st0" cx="26.46" cy="3.51" r="2.19"/>
	<circle class="st0" cx="26.46" cy="45.66" r="2.19"/>
	<polyline class="st0" points="44.35,14.85 44.39,17.31 32.61,28.25 32.35,41.78 	"/>
	<path class="st0" d="M41.38,19.47c-0.06-0.1-4.72-4.37-4.72-4.37V8.62"/>
	<line class="st0" x1="26.46" y1="5.78" x2="26.46" y2="43.47"/>
	<polyline class="st0" points="21.86,54.8 21.86,50.97 26.46,48.25 30.63,50.72 30.63,55.31 	"/>
	<line class="st0" x1="4.07" y1="41.78" x2="48.93" y2="41.78"/>
	<line class="st0" x1="10.54" y1="55.71" x2="42.88" y2="55.71"/>
</g>
</svg>
