<?xml version="1.0" encoding="utf-8"?>
<!-- Generator: Adobe Illustrator 24.1.2, SVG Export Plug-In . SVG Version: 6.00 Build 0)  -->
<svg version="1.1" id="Слой_1" xmlns="http://www.w3.org/2000/svg" xmlns:xlink="http://www.w3.org/1999/xlink" x="0px" y="0px"
	 viewBox="0 0 46.3 62" style="enable-background:new 0 0 46.3 62;" xml:space="preserve">
<style type="text/css">
	.st0{fill:none;stroke:#000000;stroke-miterlimit:10;}
</style>
<g>
	<g>
		<polygon class="st0" points="16.8,60.7 12.6,53.7 5.4,57.3 12.1,34.5 23.5,37.8 		"/>
		<polygon class="st0" points="30.7,60.7 34.9,53.7 42.1,57.3 35.4,34.5 24,37.8 		"/>
	</g>
	<g>
		<path class="st0" d="M26,2.7L26,2.7c0.5,2.2,3.3,2.9,4.9,1.3l0,0c2.1-2.2,5.7-0.1,4.8,2.8l0,0c-0.6,2.2,1.4,4.2,3.5,3.6l0,0
			c2.9-0.8,4.9,2.8,2.8,4.8l0,0c-1.6,1.6-0.9,4.3,1.3,4.8l0,0c2.9,0.7,2.9,4.9,0,5.6l0,0c-2.2,0.5-2.9,3.3-1.3,4.9l0,0
			c2.2,2.1,0.1,5.7-2.8,4.8l0,0c-2.2-0.6-4.2,1.4-3.5,3.5l0,0c0.8,2.9-2.8,4.9-4.8,2.8l0,0c-1.6-1.6-4.3-0.9-4.9,1.3l0,0
			c-0.7,2.9-4.9,2.9-5.6,0l0,0c-0.5-2.2-3.3-2.9-4.9-1.3l0,0c-2.1,2.2-5.6,0.1-4.8-2.8l0,0c0.6-2.2-1.4-4.2-3.6-3.5l0,0
			c-2.9,0.8-4.9-2.8-2.8-4.8l0,0c1.6-1.6,0.9-4.3-1.3-4.9l0,0c-2.9-0.7-2.9-4.9,0-5.6l0,0c2.2-0.5,2.9-3.3,1.3-4.8l0,0
			c-2.2-2.1-0.1-5.6,2.8-4.8l0,0C9.4,11,11.4,9,10.8,6.8l0,0C9.9,3.9,13.5,1.9,15.6,4l0,0c1.6,1.6,4.3,0.9,4.9-1.3l0,0
			C21.2-0.2,25.3-0.2,26,2.7z"/>
		<circle class="st0" cx="23.2" cy="22.8" r="13.5"/>
	</g>
</g>
</svg>
