<?xml version="1.0" encoding="utf-8"?>
<!-- Generator: Adobe Illustrator 24.1.2, SVG Export Plug-In . SVG Version: 6.00 Build 0)  -->
<svg version="1.1" id="Слой_1" xmlns="http://www.w3.org/2000/svg" xmlns:xlink="http://www.w3.org/1999/xlink" x="0px" y="0px"
	 viewBox="0 0 43.48 57.9" style="enable-background:new 0 0 43.48 57.9;" xml:space="preserve">
<style type="text/css">
	.st0{fill:none;stroke:#000000;stroke-miterlimit:10;}
	.st1{fill:#FFFFFF;stroke:#000000;stroke-miterlimit:10;}
</style>
<g>
	<g>
		<path class="st0" d="M37.19,57.59c0-0.49-0.01-0.97-0.06-1.47c-0.01-0.17-0.04-0.34-0.05-0.51l2.82-1.78
			c-0.29-1.48-0.76-2.89-1.38-4.21l-3.33,0.24c-0.32-0.58-0.69-1.13-1.08-1.66l1.55-2.95c-0.98-1.11-2.09-2.11-3.3-2.96l-2.76,1.87
			c-0.57-0.33-1.15-0.63-1.76-0.89l-0.13-3.33c-1.39-0.47-2.84-0.78-4.34-0.91l-1.45,3c-0.49,0-0.97,0.01-1.47,0.06
			c-0.17,0.01-0.34,0.04-0.51,0.06l-1.78-2.82c-1.48,0.3-2.89,0.76-4.22,1.38l0.24,3.33c-0.58,0.33-1.13,0.69-1.65,1.08l-2.95-1.55
			c-1.11,0.98-2.11,2.09-2.96,3.31l1.87,2.76c-0.34,0.57-0.64,1.15-0.9,1.76l-3.33,0.13c-0.47,1.39-0.78,2.84-0.9,4.34l3.15,1.09
			 M10.91,57.46c0-5.99,4.87-10.86,10.86-10.86c5.99,0,10.86,4.87,10.86,10.86"/>
		<rect x="0.87" y="5.38" class="st0" width="41.53" height="51.74"/>
		<g>
			<line class="st0" x1="5.04" y1="12.19" x2="38.23" y2="12.19"/>
			<line class="st0" x1="5.04" y1="15.59" x2="38.23" y2="15.59"/>
			<line class="st0" x1="5.04" y1="19" x2="38.23" y2="19"/>
			<line class="st0" x1="5.04" y1="22.4" x2="38.23" y2="22.4"/>
			<line class="st0" x1="5.04" y1="25.81" x2="38.23" y2="25.81"/>
			<line class="st0" x1="5.04" y1="29.21" x2="38.23" y2="29.21"/>
			<line class="st0" x1="5.04" y1="32.62" x2="38.23" y2="32.62"/>
		</g>
	</g>
	<path class="st1" d="M30.31,7.14H12.95V3.23l4.56,0c0.84-1.78,2.24-2.57,4.12-2.52c2.18,0.11,2.97,1.35,3.86,2.52l4.82,0V7.14z"/>
</g>
</svg>
