<?xml version="1.0" encoding="utf-8"?>
<!-- Generator: Adobe Illustrator 24.1.2, SVG Export Plug-In . SVG Version: 6.00 Build 0)  -->
<svg version="1.1" id="Слой_1" xmlns="http://www.w3.org/2000/svg" xmlns:xlink="http://www.w3.org/1999/xlink" x="0px" y="0px"
	 viewBox="0 0 859.9 869.4" style="enable-background:new 0 0 859.9 869.4;" xml:space="preserve">
<path fill="#008a5f" d="M471.6,24.6c-7.5,19.1-16.2,42.8-25.1,68l-9.8,27.8h-12.2c-23.1,0-58.3,4.7-78.8,10.6c-7,2-12.9,3.5-13.1,3.3
	c-0.1-0.2-3.6-5.1-7.7-10.9c-14-20-57-79-57.5-79c-1,0-18.1,6.8-21.9,8.8c-2.2,1.1-7.4,3.6-11.5,5.6c-4.1,1.9-12,6.1-17.5,9.4
	c-5.5,3.2-14.8,8.7-20.7,12.2c-10.5,6.2-25,16.6-34.2,24.5L157,109l12,25.9c6.7,14.3,17.1,36.7,23.2,49.8l11.1,23.8l-7.6,7.7
	c-19.6,20-43.3,51.1-51.3,67.5c-1.6,3.2-3.2,5.7-3.7,5.7c-0.4,0-14.6-2.4-31.5-5.4c-32.9-5.8-77.3-12.9-77.7-12.4
	c-0.8,0.8-10.3,24.8-14,35.3c-5.1,14.6-13.5,55.8-17,84l-0.6,5l50.8,19.5l50.8,19.5l0.2,9.5c0.4,17.1,2.3,38.1,4.4,48.9
	c1.1,5.8,2.7,14.1,3.5,18.3c0.8,4.3,2.6,11.6,3.9,16.3c1.4,4.7,2.5,9.2,2.5,10c0,0.7-9.3,8-20.7,16.1c-11.5,8.1-31.3,22.4-44.1,31.8
	C30.4,601,28,603.1,28.5,605.1c2.2,8.8,21.6,46.4,34.6,67.2c7.4,11.6,22.3,33,26.4,37.8l3,3.4l17.5-8.1
	c17.2-8.1,73.6-33.9,79.6-36.5l3-1.4l13.5,12.5c16.9,15.8,25.3,22.1,48.2,36.1c13.8,8.4,18.2,11.6,18,13c-0.1,1-2.2,14.2-4.7,29.3
	c-4.4,26.6-11.6,74.8-11.6,77.3c0,0.7,1.5,1.8,3.3,2.6c22.5,9,42.6,15.2,71.5,22c19.3,4.6,47.3,9.4,48.3,8.3
	c1.8-2,26.1-65.9,35.5-92.9l3.8-11.3h15.2c26.2,0,44.7-2.6,71.2-10.2c12.2-3.4,14.6-3.8,15.7-2.7c0.7,0.8,15.3,21.2,32.5,45.4
	c17.2,24.2,31.4,44.2,31.6,44.3c0.3,0.4,9.1-3.7,36.1-17c11.2-5.5,24.3-13,34.5-19.7c14.5-9.6,33.1-23.3,38.1-28.1
	c1.8-1.6,1.5-2.5-8.1-24.1c-5.5-12.3-15.9-35-23-50.4l-13-27.9l11.7-12.6c16-17,30.5-36.8,40.5-55.2c2.5-4.8,5-8.9,5.4-9.1
	c0.4-0.2,9.5,1.1,20.2,2.9c55.9,9.4,88.3,14.5,89.4,14.1c2.2-0.9,17.8-45.3,22.1-62.7c0.8-3.6,2-7.5,2.5-8.7
	c0.9-2.1,7.3-38.2,8.4-47.5l0.6-4.7l-4.8-2.1c-6.2-2.8-48-18.6-76.4-29l-22.8-8.3v-15.6c0-17.9-1-28.1-4.1-44.8
	c-1.8-9.9-6.7-31.4-8.5-37.5c-0.4-1.2,4.4-5.1,18.8-15.4c21.7-15.5,69.5-51.1,70.3-52.5c0.7-1.1-6.1-17.1-14.3-33.4
	c-11.6-23.3-26.6-46.8-42.4-66.7l-7.7-9.7l-13.3,5.8c-18.4,8.1-48,21.7-68.7,31.7l-17.3,8.4l-13.4-12.7
	c-14.2-13.4-31.4-26.8-42.9-33.6c-6-3.5-18.3-11.6-20.8-13.7c-0.4-0.4,1.1-12.3,3.3-26.6c11.2-71.4,13.1-83.6,12.8-83.9
	c-0.2-0.1-7.3-2.9-15.8-6.2c-18-7-39.9-14.3-43.1-14.3c-1.2,0-4.7-0.9-7.8-1.9c-8-2.8-48.8-11-54.6-11.1
	C474.9,17.4,473.9,19,471.6,24.6z M453.5,286.9c27.6,4.9,56.4,18.4,77.2,36.3c24.6,21.2,46,59.9,51.8,93.6c2.2,12.7,2,34.7-0.4,48.8
	c-4.4,25.5-15.4,52.5-28.5,69.8c-23.1,30.7-63.1,54.8-102,61.5c-11.4,1.9-33.4,1.9-45.4,0c-22.8-3.7-48.6-13-64.6-23.3
	c-35.6-23-62-62.5-70.2-105.2c-2.4-12.7-2.4-35.8,0-49.5c9-50.9,32.9-86.2,76.1-112.6c11.4-7,29.3-14.2,43-17.5
	C409.8,284.2,434.4,283.5,453.5,286.9z"/>
<path d="M417.5,307.1c-21.5,2.5-33.7,6.2-51.5,15.4c-35,18.1-55.9,44.4-66.5,83.8c-5,18.4-5.8,24.1-5.9,39.1
	c0,14.2,1.6,25.2,5.5,37.1c2.4,7.4,10.9,25.9,11.9,25.9c0.3,0,3.4,4.2,6.7,9.2c14.8,22.3,35.5,38.9,60.9,48.8
	c50.6,19.8,103.7,9.4,143.7-28c18-16.8,32.8-43.6,37.8-68.2c6.9-34.3,1.2-66.4-17.3-97.4c-19.9-33.5-45.9-52.4-85.8-62.3
	C443.6,307.2,427.8,305.8,417.5,307.1z M452,344.5c31.2,7.8,53.2,26.1,68.1,56.5c6.8,14.1,8.3,21.4,8.3,40.9c0,19.9-1.5,27-9,42.4
	c-5.5,11.5-11.2,19.6-19.5,27.9c-29,28.5-62.7,36.8-102.4,25.2c-25.8-7.5-46.2-25.3-59.5-51.9c-12.7-25.4-13.9-57.3-3.3-81.6
	c10.5-23.6,28.9-42.4,52.5-53.5C408.9,340.2,428,338.5,452,344.5z"/>
</svg>
